<svg aria-hidden="true" style="position: absolute; width: 0; height: 0; overflow: hidden;" version="1.1" xmlns="http://www.w3.org/2000/svg" xmlns:xlink="http://www.w3.org/1999/xlink">
<defs>
<symbol id="icon-buymeacoffee" viewBox="0 0 32 32">
<path fill="#ff813f" style="fill: var(--color1, #ff813f)" d="M9.197 0l-1.621 3.732h-2.407v3.364h0.927l0.94 5.971h-1.473l1.947 10.973 1.251-0.013 1.256 7.973h11.891l0.083-0.533 1.173-7.44 1.184 0.013 1.947-10.975h-1.408l0.94-5.969h1.008v-3.363h-2.557l-1.623-3.733zM9.901 1.073h12.057l1.028 2.373h-14.117zM6.235 4.803h19.525v1.227h-19.525zM6.839 14.133h18.18l-1.568 8.827-7.532-0.080-7.515 0.080z"></path>
</symbol>
<symbol id="icon-discord" viewBox="0 0 32 32">
<path fill="#7289da" style="fill: var(--color2, #7289da)" d="M26.963 0c1.875 0 3.387 1.516 3.476 3.3v28.7l-3.569-3.031-1.96-1.784-2.139-1.864 0.893 2.94h-18.717c-1.869 0-3.387-1.42-3.387-3.301v-21.653c0-1.784 1.52-3.303 3.393-3.303h22zM18.805 7.577h-0.040l-0.269 0.267c2.764 0.8 4.101 2.049 4.101 2.049-1.781-0.891-3.387-1.336-4.992-1.516-1.16-0.18-2.32-0.085-3.3 0h-0.267c-0.627 0-1.96 0.267-3.747 0.98-0.623 0.271-0.98 0.448-0.98 0.448s1.336-1.336 4.28-2.049l-0.18-0.18c0 0-2.229-0.085-4.636 1.693 0 0-2.407 4.192-2.407 9.36 0 0 1.333 2.32 4.991 2.408 0 0 0.533-0.711 1.073-1.336-2.053-0.624-2.853-1.872-2.853-1.872s0.179 0.088 0.447 0.267h0.080c0.040 0 0.059 0.020 0.080 0.040v0.008c0.021 0.021 0.040 0.040 0.080 0.040 0.44 0.181 0.88 0.36 1.24 0.533 0.621 0.269 1.42 0.537 2.4 0.715 1.24 0.18 2.661 0.267 4.28 0 0.8-0.18 1.6-0.356 2.4-0.713 0.52-0.267 1.16-0.533 1.863-0.983 0 0-0.8 1.248-2.94 1.872 0.44 0.621 1.060 1.333 1.060 1.333 3.659-0.080 5.080-2.4 5.16-2.301 0-5.16-2.42-9.36-2.42-9.36-2.18-1.619-4.22-1.68-4.58-1.68zM19.029 13.461c0.937 0 1.693 0.8 1.693 1.78 0 0.987-0.76 1.787-1.693 1.787s-1.693-0.8-1.693-1.779c0.003-0.987 0.764-1.784 1.693-1.788zM12.972 13.461c0.933 0 1.688 0.8 1.688 1.78 0 0.987-0.76 1.787-1.693 1.787s-1.693-0.8-1.693-1.779c0-0.987 0.76-1.784 1.699-1.788z"></path>
</symbol>
<symbol id="icon-facebook" viewBox="0 0 32 32">
<path fill="#1877f2" style="fill: var(--color3, #1877f2)" d="M31.997 15.999c0-8.836-7.163-15.999-15.999-15.999s-15.999 7.163-15.999 15.999c0 7.985 5.851 14.604 13.499 15.804v-11.18h-4.062v-4.625h4.062v-3.525c0-4.010 2.389-6.225 6.043-6.225 1.75 0 3.581 0.313 3.581 0.313v3.937h-2.017c-1.987 0-2.607 1.233-2.607 2.498v3.001h4.437l-0.709 4.625h-3.728v11.18c7.649-1.2 13.499-7.819 13.499-15.804z"></path>
</symbol>
<symbol id="icon-github" viewBox="0 0 32 32">
<path d="M16 0.396c-8.84 0-16 7.164-16 16 0 7.071 4.584 13.067 10.94 15.18 0.8 0.151 1.093-0.344 1.093-0.769 0-0.38-0.013-1.387-0.020-2.72-4.451 0.965-5.389-2.147-5.389-2.147-0.728-1.847-1.78-2.34-1.78-2.34-1.449-0.992 0.112-0.972 0.112-0.972 1.607 0.112 2.451 1.648 2.451 1.648 1.427 2.447 3.745 1.74 4.66 1.331 0.144-1.035 0.556-1.74 1.013-2.14-3.553-0.4-7.288-1.776-7.288-7.907 0-1.747 0.62-3.173 1.647-4.293-0.18-0.404-0.72-2.031 0.14-4.235 0 0 1.34-0.429 4.4 1.64 1.28-0.356 2.64-0.532 4-0.54 1.36 0.008 2.72 0.184 4 0.54 3.040-2.069 4.38-1.64 4.38-1.64 0.86 2.204 0.32 3.831 0.16 4.235 1.020 1.12 1.64 2.547 1.64 4.293 0 6.147-3.74 7.5-7.3 7.893 0.56 0.48 1.080 1.461 1.080 2.96 0 2.141-0.020 3.861-0.020 4.381 0 0.42 0.28 0.92 1.1 0.76 6.401-2.099 10.981-8.099 10.981-15.159 0-8.836-7.164-16-16-16z"></path>
</symbol>
<symbol id="icon-instagram" viewBox="0 0 32 32">
<path fill="#e4405f" style="fill: var(--color4, #e4405f)" d="M16 0c-4.347 0-4.889 0.020-6.596 0.096-1.704 0.080-2.864 0.348-3.884 0.744-1.052 0.408-1.945 0.956-2.835 1.845s-1.439 1.781-1.845 2.835c-0.396 1.020-0.665 2.18-0.744 3.884-0.080 1.707-0.096 2.249-0.096 6.596s0.020 4.889 0.096 6.596c0.080 1.703 0.348 2.864 0.744 3.884 0.408 1.051 0.956 1.945 1.845 2.835 0.889 0.888 1.781 1.439 2.835 1.845 1.021 0.395 2.181 0.665 3.884 0.744 1.707 0.080 2.249 0.096 6.596 0.096s4.889-0.020 6.596-0.096c1.703-0.080 2.864-0.349 3.884-0.744 1.051-0.408 1.945-0.957 2.835-1.845 0.888-0.889 1.439-1.78 1.845-2.835 0.395-1.020 0.665-2.181 0.744-3.884 0.080-1.707 0.096-2.249 0.096-6.596s-0.020-4.889-0.096-6.596c-0.080-1.703-0.349-2.865-0.744-3.884-0.408-1.052-0.957-1.945-1.845-2.835-0.889-0.889-1.78-1.439-2.835-1.845-1.020-0.396-2.181-0.665-3.884-0.744-1.707-0.080-2.249-0.096-6.596-0.096zM16 2.88c4.271 0 4.78 0.021 6.467 0.095 1.56 0.073 2.407 0.332 2.969 0.553 0.749 0.289 1.28 0.636 1.843 1.195 0.559 0.56 0.905 1.092 1.195 1.841 0.219 0.563 0.48 1.409 0.551 2.969 0.076 1.688 0.093 2.195 0.093 6.467s-0.020 4.78-0.099 6.467c-0.081 1.56-0.341 2.407-0.561 2.969-0.299 0.749-0.639 1.28-1.199 1.843-0.559 0.559-1.099 0.905-1.84 1.195-0.56 0.219-1.42 0.48-2.98 0.551-1.699 0.076-2.199 0.093-6.479 0.093-4.281 0-4.781-0.020-6.479-0.099-1.561-0.081-2.421-0.341-2.981-0.561-0.759-0.299-1.28-0.639-1.839-1.199-0.561-0.559-0.92-1.099-1.2-1.84-0.22-0.56-0.479-1.42-0.56-2.98-0.060-1.68-0.081-2.199-0.081-6.459 0-4.261 0.021-4.781 0.081-6.481 0.081-1.56 0.34-2.419 0.56-2.979 0.28-0.76 0.639-1.28 1.2-1.841 0.559-0.559 1.080-0.919 1.839-1.197 0.56-0.221 1.401-0.481 2.961-0.561 1.7-0.060 2.2-0.080 6.479-0.080zM16 7.784c-4.54 0-8.216 3.68-8.216 8.216 0 4.54 3.68 8.216 8.216 8.216 4.54 0 8.216-3.68 8.216-8.216 0-4.54-3.68-8.216-8.216-8.216zM16 21.333c-2.947 0-5.333-2.387-5.333-5.333s2.387-5.333 5.333-5.333 5.333 2.387 5.333 5.333-2.387 5.333-5.333 5.333zM26.461 7.46c0 1.060-0.861 1.92-1.92 1.92-1.060 0-1.92-0.861-1.92-1.92s0.861-1.919 1.92-1.919c1.057-0.001 1.92 0.86 1.92 1.919z"></path>
</symbol>
<symbol id="icon-linkedin" viewBox="0 0 32 32">
<path fill="#0077b5" style="fill: var(--color5, #0077b5)" d="M27.263 27.269h-4.739v-7.425c0-1.771-0.036-4.049-2.469-4.049-2.471 0-2.848 1.927-2.848 3.919v7.556h-4.739v-15.269h4.552v2.081h0.061c0.636-1.2 2.183-2.467 4.493-2.467 4.801 0 5.689 3.16 5.689 7.273zM7.116 9.911c-1.525 0-2.751-1.235-2.751-2.753 0-1.517 1.227-2.751 2.751-2.751 1.52 0 2.752 1.233 2.752 2.751 0 1.519-1.233 2.753-2.752 2.753zM9.492 27.269h-4.752v-15.269h4.752zM29.633 0h-27.272c-1.305 0-2.361 1.032-2.361 2.305v27.389c0 1.275 1.056 2.305 2.361 2.305h27.268c1.304 0 2.371-1.031 2.371-2.305v-27.389c0-1.273-1.067-2.305-2.371-2.305z"></path>
</symbol>
<symbol id="icon-netlify" viewBox="0 0 32 32">
<path fill="#00c7b7" style="fill: var(--color6, #00c7b7)" d="M22.579 11.359c0.157 0.080 0.291 0.183 0.403 0.306l0.001 0.001 3.132-1.393-2.923-2.895-0.655 3.939zM16.080 8.728c0.146 0.217 0.245 0.477 0.278 0.757l0.001 0.008 4.663 1.976c0.134-0.104 0.292-0.185 0.463-0.234l0.010-0.002 0.765-4.733-2.84-2.979-3.34 5.136zM31.991 16.049l-4.997-4.997-3.397 1.392 8.352 3.549c0 0 0.071 0.056 0.043 0.056zM31.155 16.857l-8.017-3.425c-0.221 0.292-0.55 0.492-0.926 0.542l-0.007 0.001-0.863 5.276c0.248 0.25 0.402 0.594 0.404 0.974v0l4.844 1.016 4.44-4.413v-0.083zM20.533 12.333l-4.357-1.853c-0.29 0.439-0.781 0.725-1.339 0.725-0.018 0-0.037-0-0.055-0.001l0.003 0h-0.265l-3.605 5.569 9.633-4.176v0.013c-0.003-0.033-0.005-0.072-0.005-0.111s0.002-0.078 0.006-0.116l-0 0.005c0.001-0.004 0.001-0.008 0.001-0.012 0-0.016-0.005-0.031-0.015-0.043l0 0zM25.823 22.077l-4.26-0.877c-0.159 0.202-0.366 0.359-0.604 0.455l-0.010 0.003-1.015 6.293 5.916-5.861c0 0-0.013 0.027-0.028 0.027zM19.864 21.645c-0.406-0.17-0.709-0.514-0.819-0.937l-0.002-0.010-7.933-1.629-0.112 0.181 7.197 10.413 0.431-0.432 1.225-7.56c0 0 0.041 0.029 0.013 0.015zM11.276 18.109l7.837 1.615c0.227-0.39 0.628-0.658 1.094-0.696l0.005-0 0.849-5.192-0.18-0.153-9.744 4.176c0.045 0.069 0.091 0.151 0.132 0.236l0.006 0.014zM7.991 19.417l-0.167-0.167-3.383 1.392 1.643 1.629 1.865-2.896zM10.217 19.947c-0.22 0.104-0.478 0.165-0.75 0.167h-0.001c-0.002 0-0.005 0-0.007 0-0.212 0-0.416-0.036-0.606-0.101l0.013 0.004-2.059 2.993 9.020 8.936 1.587-1.573zM8.951 16.425c0.063-0.006 0.136-0.010 0.209-0.010s0.147 0.003 0.219 0.010l-0.009-0.001c0.069-0.009 0.149-0.014 0.229-0.014s0.16 0.005 0.239 0.015l-0.009-0.001 3.647-5.667c-0.275-0.284-0.444-0.672-0.445-1.098v-0c-0.006-0.054-0.010-0.117-0.010-0.181s0.004-0.126 0.011-0.188l-0.001 0.008-4.427-2.047-3.563 3.467zM9.355 6.556l4.316 1.837c0.284-0.235 0.651-0.377 1.052-0.377 0.022 0 0.043 0 0.064 0.001l-0.003-0c0.19 0.002 0.371 0.032 0.542 0.088l-0.013-0.004 3.368-5.263-2.784-2.784-6.543 6.417c0 0-0.013 0.069 0 0.084zM7.741 17.441c0.092-0.17 0.198-0.316 0.321-0.446l-0.001 0.001-3.691-5.512-4.371 4.245zM7.392 18.375l-6.681-1.395 2.937 2.98 3.703-1.573z"></path>
</symbol>
<symbol id="icon-twitch" viewBox="0 0 32 32">
<path fill="#6441a4" style="fill: var(--color7, #6441a4)" d="M2.785 0l-2.085 5.567v22.259h7.648v4.175h4.176l4.169-4.176h6.26l8.347-8.344v-19.48zM5.567 2.78h22.953v15.305l-4.869 4.869h-7.651l-4.169 4.169v-4.169h-6.264zM13.22 16.696h2.78v-8.347h-2.78zM20.867 16.696h2.781v-8.347h-2.781z"></path>
</symbol>
<symbol id="icon-twitter" viewBox="0 0 32 32">
<path fill="#1da1f2" style="fill: var(--color8, #1da1f2)" d="M31.939 6.092c-1.18 0.519-2.44 0.872-3.767 1.033 1.352-0.815 2.392-2.099 2.884-3.631-1.268 0.74-2.673 1.279-4.169 1.579-1.195-1.279-2.897-2.079-4.788-2.079-3.623 0-6.56 2.937-6.56 6.556 0 0.52 0.060 1.020 0.169 1.499-5.453-0.257-10.287-2.876-13.521-6.835-0.569 0.963-0.888 2.081-0.888 3.3 0 2.28 1.16 4.284 2.917 5.461-1.076-0.035-2.088-0.331-2.971-0.821v0.081c0 3.18 2.257 5.832 5.261 6.436-0.551 0.148-1.132 0.228-1.728 0.228-0.419 0-0.82-0.040-1.221-0.115 0.841 2.604 3.26 4.503 6.139 4.556-2.24 1.759-5.079 2.807-8.136 2.807-0.52 0-1.039-0.031-1.56-0.089 2.919 1.859 6.357 2.945 10.076 2.945 12.072 0 18.665-9.995 18.665-18.648 0-0.279 0-0.56-0.020-0.84 1.281-0.919 2.4-2.080 3.28-3.397z"></path>
</symbol>
</defs>
</svg>
